<svg width="46" height="46" viewBox="0 0 46 46" fill="none" xmlns="http://www.w3.org/2000/svg">
<path d="M36.4167 21.0834H15.0076L24.3609 11.7301C25.1084 10.9826 25.1084 9.75589 24.3609 9.00839C24.1836 8.83071 23.973 8.68975 23.7411 8.59356C23.5092 8.49738 23.2607 8.44788 23.0096 8.44788C22.7586 8.44788 22.5101 8.49738 22.2782 8.59356C22.0463 8.68975 21.8357 8.83071 21.6584 9.00839L9.02756 21.6392C8.84988 21.8165 8.70891 22.0272 8.61273 22.259C8.51655 22.4909 8.46704 22.7395 8.46704 22.9905C8.46704 23.2415 8.51655 23.4901 8.61273 23.7219C8.70891 23.9538 8.84988 24.1644 9.02756 24.3417L21.6584 36.9726C21.8358 37.15 22.0465 37.2908 22.2784 37.3868C22.5102 37.4828 22.7587 37.5323 23.0096 37.5323C23.2606 37.5323 23.5091 37.4828 23.7409 37.3868C23.9728 37.2908 24.1834 37.15 24.3609 36.9726C24.5383 36.7951 24.6791 36.5844 24.7751 36.3526C24.8712 36.1208 24.9206 35.8723 24.9206 35.6213C24.9206 35.3704 24.8712 35.1219 24.7751 34.89C24.6791 34.6582 24.5383 34.4475 24.3609 34.2701L15.0076 24.9167H36.4167C37.4709 24.9167 38.3334 24.0542 38.3334 23.0001C38.3334 21.9459 37.4709 21.0834 36.4167 21.0834Z" fill="#FFFAEE"/>
</svg>
